<svg width="28" height="28" viewBox="0 0 21 21" fill="none" xmlns="http://www.w3.org/2000/svg">
<path id="Vector" d="M18.9004 0.5H2.20893C1.29687 0.5 0.5 1.15625 0.5 2.05759V18.7862C0.5 19.6924 1.29687 20.5 2.20893 20.5H18.8955C19.8125 20.5 20.5 19.6871 20.5 18.7862V2.05759C20.5053 1.15625 19.8125 0.5 18.9004 0.5ZM6.69954 15.7384C6.69954 16.5296 6.05815 17.171 5.26696 17.171V17.171C4.47576 17.171 3.83437 16.5296 3.83437 15.7384V9.69509C3.83437 8.90389 4.47576 8.2625 5.26696 8.2625V8.2625C6.05815 8.2625 6.69954 8.90389 6.69954 9.69509V15.7384ZM5.36606 6.90804H5.34553C4.42856 6.90804 3.83482 6.22545 3.83482 5.37098C3.83482 4.50089 4.44419 3.83438 5.38169 3.83438C6.31919 3.83438 6.89285 4.49598 6.91338 5.37098C6.91294 6.22545 6.31919 6.90804 5.36606 6.90804ZM17.1711 15.7385C17.171 16.5296 16.5296 17.171 15.7384 17.171V17.171C14.9472 17.171 14.3058 16.5296 14.3058 15.7383V12.3C14.3058 11.133 13.8888 10.3357 12.8522 10.3357C12.0602 10.3357 11.5915 10.8714 11.383 11.3933C11.3049 11.5808 11.2839 11.8362 11.2839 12.0969V15.7384C11.2839 16.5296 10.6425 17.171 9.85132 17.171V17.171C9.06013 17.171 8.41874 16.5296 8.41874 15.7384V9.69509C8.41874 8.90389 9.06013 8.2625 9.85132 8.2625H10.9862C11.1506 8.2625 11.2839 8.3958 11.2839 8.56022V8.56022C11.2839 8.85108 11.6738 8.97885 11.8872 8.78117C12.3129 8.38672 12.9221 8.05402 13.8678 8.05402C15.7486 8.05402 17.1714 9.29375 17.1714 11.9665L17.1711 15.7385Z" fill="#9BBDFF"/>
</svg>
