<svg width="38" height="38" viewBox="0 0 29 29" fill="none" xmlns="http://www.w3.org/2000/svg">
<g id="mail">
<path id="Vector" d="M23.6875 4.875H5.3125C4.50054 4.87587 3.72209 5.1988 3.14794 5.77294C2.5738 6.34709 2.25087 7.12554 2.25 7.9375V21.0625C2.25087 21.8745 2.5738 22.6529 3.14794 23.2271C3.72209 23.8012 4.50054 24.1241 5.3125 24.125H23.6875C24.4995 24.1241 25.2779 23.8012 25.8521 23.2271C26.4262 22.6529 26.7491 21.8745 26.75 21.0625V7.9375C26.7491 7.12554 26.4262 6.34709 25.8521 5.77294C25.2779 5.1988 24.4995 4.87587 23.6875 4.875ZM22.912 9.9407L15.037 16.0657C14.8835 16.1851 14.6945 16.2499 14.5 16.2499C14.3055 16.2499 14.1165 16.1851 13.963 16.0657L6.08797 9.9407C5.99544 9.87083 5.91773 9.78327 5.85934 9.6831C5.80095 9.58293 5.76305 9.47216 5.74784 9.35722C5.73263 9.24228 5.74042 9.12546 5.77075 9.01356C5.80107 8.90165 5.85334 8.79689 5.92451 8.70536C5.99567 8.61383 6.08432 8.53735 6.1853 8.48038C6.28628 8.4234 6.39757 8.38706 6.51272 8.37347C6.62786 8.35988 6.74456 8.36931 6.85603 8.40121C6.96749 8.43311 7.07151 8.48685 7.16203 8.5593L14.5 14.2665L21.838 8.5593C22.0215 8.42073 22.2521 8.35996 22.4801 8.39012C22.708 8.42028 22.9149 8.53895 23.056 8.72047C23.1972 8.90199 23.2612 9.13177 23.2342 9.36012C23.2073 9.58847 23.0915 9.79703 22.912 9.9407Z" fill="#9BBDFF"/>
</g>
</svg>
